<?xml version="1.0"?>
<svg xmlns="http://www.w3.org/2000/svg" xmlns:lc="http://www.librecad.org" xmlns:xlink="http://www.w3.org/1999/xlink" width="419.2mm" height="250.048mm" viewBox="0 0 419.2 250.048">
    <g lc:layername="0" lc:is_locked="false" lc:is_construction="false" fill="none" stroke="black" stroke-width="1">
        <line x1="112" y1="182.336" x2="113.792" y2="139.328"/>
        <path d="M113.792,139.328 A9.856,9.856 0 0,0 103.936,129.472 "/>
        <line x1="103.936" y1="129.472" x2="89.152" y2="129.472"/>
        <line x1="89.152" y1="129.472" x2="76.608" y2="128.576"/>
        <line x1="76.608" y1="128.576" x2="73.024" y2="125.888"/>
        <line x1="73.024" y1="125.888" x2="68.096" y2="120.96"/>
        <line x1="68.096" y1="120.96" x2="65.408" y2="116.032"/>
        <line x1="65.408" y1="116.032" x2="63.616" y2="111.552"/>
        <line x1="63.616" y1="111.552" x2="60.032" y2="98.56"/>
        <line x1="60.032" y1="98.56" x2="58.24" y2="74.368"/>
        <line x1="58.24" y1="74.368" x2="58.688" y2="61.824"/>
        <line x1="58.688" y1="61.824" x2="59.584" y2="54.656"/>
        <line x1="59.584" y1="54.656" x2="60.48" y2="47.936"/>
        <line x1="60.48" y1="47.936" x2="60.928" y2="42.56"/>
        <line x1="60.928" y1="42.56" x2="61.376" y2="38.528"/>
        <line x1="61.376" y1="38.528" x2="60.48" y2="35.84"/>
        <line x1="60.48" y1="35.84" x2="64.512" y2="36.736"/>
        <line x1="64.512" y1="36.736" x2="65.408" y2="18.816"/>
        <line x1="65.408" y1="18.816" x2="61.376" y2="17.472"/>
        <line x1="61.376" y1="17.472" x2="61.376" y2="4.928"/>
        <line x1="61.376" y1="4.928" x2="42.56" y2="0"/>
        <line x1="42.56" y1="0" x2="29.568" y2="9.408"/>
        <line x1="29.568" y1="9.408" x2="25.536" y2="8.064"/>
        <line x1="25.536" y1="8.064" x2="17.92" y2="23.744"/>
        <line x1="17.92" y1="23.744" x2="21.056" y2="24.64"/>
        <line x1="21.056" y1="24.64" x2="14.784" y2="36.736"/>
        <line x1="14.784" y1="36.736" x2="12.992" y2="40.768"/>
        <line x1="12.992" y1="40.768" x2="10.752" y2="46.144"/>
        <line x1="10.752" y1="46.144" x2="9.408" y2="55.552"/>
        <line x1="9.408" y1="55.552" x2="8.96" y2="65.856"/>
        <line x1="8.96" y1="65.856" x2="8.512" y2="77.504"/>
        <line x1="8.512" y1="77.504" x2="9.408" y2="86.016"/>
        <line x1="9.408" y1="86.016" x2="9.856" y2="93.184"/>
        <line x1="9.856" y1="93.184" x2="12.096" y2="104.832"/>
        <line x1="12.096" y1="104.832" x2="15.232" y2="116.48"/>
        <line x1="15.232" y1="116.48" x2="17.92" y2="125.44"/>
        <line x1="17.92" y1="125.44" x2="21.056" y2="132.608"/>
        <line x1="21.056" y1="132.608" x2="26.432" y2="146.496"/>
        <line x1="26.432" y1="146.496" x2="30.016" y2="158.144"/>
        <line x1="30.016" y1="158.144" x2="31.36" y2="162.624"/>
        <line x1="31.36" y1="162.624" x2="32.256" y2="165.76"/>
        <line x1="32.256" y1="165.76" x2="32.256" y2="167.552"/>
        <line x1="32.256" y1="167.552" x2="32.256" y2="170.24"/>
        <line x1="32.256" y1="170.24" x2="30.464" y2="173.824"/>
        <line x1="30.464" y1="173.824" x2="26.88" y2="177.856"/>
        <line x1="26.88" y1="177.856" x2="22.848" y2="180.992"/>
        <line x1="22.848" y1="180.992" x2="18.368" y2="183.68"/>
        <line x1="18.368" y1="183.68" x2="11.2" y2="186.816"/>
        <line x1="11.2" y1="186.816" x2="0" y2="188.608"/>
        <line x1="0" y1="188.608" x2="0" y2="194.432"/>
        <line x1="0" y1="194.432" x2="6.272" y2="198.464"/>
        <line x1="6.272" y1="198.464" x2="12.096" y2="202.496"/>
        <line x1="12.096" y1="202.496" x2="13.888" y2="204.288"/>
        <line x1="13.888" y1="204.288" x2="23.296" y2="215.488"/>
        <line x1="23.296" y1="215.488" x2="24.192" y2="215.488"/>
        <line x1="24.192" y1="215.488" x2="26.88" y2="242.368"/>
        <line x1="26.88" y1="242.368" x2="37.184" y2="242.368"/>
        <line x1="37.184" y1="242.368" x2="37.184" y2="244.608"/>
        <line x1="58.24" y1="245.056" x2="60.928" y2="242.368"/>
        <line x1="60.928" y1="242.368" x2="96.32" y2="242.368"/>
        <line x1="96.32" y1="242.368" x2="98.56" y2="224.896"/>
        <line x1="98.56" y1="224.896" x2="100.8" y2="224"/>
        <line x1="100.8" y1="224" x2="102.144" y2="215.936"/>
        <line x1="102.144" y1="215.936" x2="106.624" y2="215.936"/>
        <line x1="106.624" y1="215.936" x2="107.968" y2="214.592"/>
        <line x1="107.968" y1="214.592" x2="119.616" y2="194.88"/>
        <line x1="119.616" y1="194.88" x2="112.448" y2="185.92"/>
        <line x1="112.448" y1="185.92" x2="112" y2="182.336"/>
        <line x1="58.24" y1="245.056" x2="37.184" y2="245.056"/>
        <line x1="37.184" y1="245.056" x2="37.184" y2="244.608"/>
        <line x1="92.24" y1="134.384" x2="94.08" y2="134.384"/>
        <line x1="94.08" y1="134.384" x2="107.6" y2="134.384"/>
        <path d="M108.4,135.184 A0.8,0.8 0 0,0 107.6,134.384 "/>
        <line x1="108.4" y1="135.184" x2="108.4" y2="153.344"/>
        <line x1="107.6" y1="154.144" x2="92.24" y2="154.144"/>
        <path d="M107.6,154.144 A0.8,0.8 0 0,0 108.4,153.344 "/>
        <line x1="73.2832" y1="158.624" x2="73.283144" y2="158.624"/>
        <line x1="92.24" y1="154.144" x2="73.39243817" y2="154.144"/>
        <path d="M72.599333,153.44880548 A0.8,0.8 0 0,0 73.39243817,154.144 "/>
        <line x1="92.24" y1="134.384" x2="70.99267137" y2="134.384"/>
        <line x1="72.599333" y1="153.44880548" x2="70.1995662" y2="135.28880548"/>
        <path d="M70.99267137,134.384 A0.8,0.8 0 0,0 70.1995662,135.28880548 "/>
        <line x1="92.24" y1="179.184" x2="76.70124022" y2="179.184"/>
        <path d="M75.90813474,178.48880318 A0.8,0.8 0 0,0 76.70124022,179.184 "/>
        <line x1="75.90813474" y1="178.48880318" x2="73.40270723" y2="159.52880318"/>
        <line x1="92.24" y1="158.624" x2="74.1958127" y2="158.624"/>
        <path d="M74.1958127,158.624 A0.8,0.8 0 0,0 73.40270723,159.52880318 "/>
        <line x1="92.24" y1="179.184" x2="107.5968811" y2="179.184"/>
        <path d="M107.5968811,179.184 A0.8,0.8 0 0,0 108.39687505,178.38088718 "/>
        <line x1="108.39687505" y1="178.38088718" x2="108.32310073" y2="159.42088718"/>
        <line x1="107.52310678" y1="158.624" x2="92.24" y2="158.624"/>
        <path d="M108.32310073,159.42088718 A0.8,0.8 0 0,0 107.52310678,158.624 "/>
        <line x1="75.2" y1="67.712" x2="73.408" y2="110.72"/>
        <path d="M73.408,110.72 A9.856,9.856 0 0,0 83.264,120.576 "/>
        <line x1="83.264" y1="120.576" x2="98.048" y2="120.576"/>
        <line x1="98.048" y1="120.576" x2="110.592" y2="121.472"/>
        <line x1="110.592" y1="121.472" x2="114.176" y2="124.16"/>
        <line x1="114.176" y1="124.16" x2="119.104" y2="129.088"/>
        <line x1="119.104" y1="129.088" x2="121.792" y2="134.016"/>
        <line x1="121.792" y1="134.016" x2="123.584" y2="138.496"/>
        <line x1="123.584" y1="138.496" x2="127.168" y2="151.488"/>
        <line x1="127.168" y1="151.488" x2="128.96" y2="175.68"/>
        <line x1="128.96" y1="175.68" x2="128.512" y2="188.224"/>
        <line x1="128.512" y1="188.224" x2="127.616" y2="195.392"/>
        <line x1="127.616" y1="195.392" x2="126.72" y2="202.112"/>
        <line x1="126.72" y1="202.112" x2="126.272" y2="207.488"/>
        <line x1="126.272" y1="207.488" x2="125.824" y2="211.52"/>
        <line x1="125.824" y1="211.52" x2="126.72" y2="214.208"/>
        <line x1="126.72" y1="214.208" x2="122.688" y2="213.312"/>
        <line x1="122.688" y1="213.312" x2="121.792" y2="231.232"/>
        <line x1="121.792" y1="231.232" x2="125.824" y2="232.576"/>
        <line x1="125.824" y1="232.576" x2="125.824" y2="245.12"/>
        <line x1="157.632" y1="240.64" x2="161.664" y2="241.984"/>
        <line x1="161.664" y1="241.984" x2="169.28" y2="226.304"/>
        <line x1="169.28" y1="226.304" x2="166.144" y2="225.408"/>
        <line x1="166.144" y1="225.408" x2="172.416" y2="213.312"/>
        <line x1="172.416" y1="213.312" x2="174.208" y2="209.28"/>
        <line x1="174.208" y1="209.28" x2="176.448" y2="203.904"/>
        <line x1="176.448" y1="203.904" x2="177.792" y2="194.496"/>
        <line x1="177.792" y1="194.496" x2="178.24" y2="184.192"/>
        <line x1="178.24" y1="184.192" x2="178.688" y2="172.544"/>
        <line x1="178.688" y1="172.544" x2="177.792" y2="164.032"/>
        <line x1="177.792" y1="164.032" x2="177.344" y2="156.864"/>
        <line x1="177.344" y1="156.864" x2="175.104" y2="145.216"/>
        <line x1="175.104" y1="145.216" x2="171.968" y2="133.568"/>
        <line x1="171.968" y1="133.568" x2="169.28" y2="124.608"/>
        <line x1="169.28" y1="124.608" x2="166.144" y2="117.44"/>
        <line x1="166.144" y1="117.44" x2="160.768" y2="103.552"/>
        <line x1="160.768" y1="103.552" x2="157.184" y2="91.904"/>
        <line x1="157.184" y1="91.904" x2="155.84" y2="87.424"/>
        <line x1="155.84" y1="87.424" x2="154.944" y2="84.288"/>
        <line x1="154.944" y1="84.288" x2="154.944" y2="82.496"/>
        <line x1="154.944" y1="82.496" x2="154.944" y2="79.808"/>
        <line x1="154.944" y1="79.808" x2="156.736" y2="76.224"/>
        <line x1="156.736" y1="76.224" x2="160.32" y2="72.192"/>
        <line x1="160.32" y1="72.192" x2="164.352" y2="69.056"/>
        <line x1="164.352" y1="69.056" x2="168.832" y2="66.368"/>
        <line x1="168.832" y1="66.368" x2="176" y2="63.232"/>
        <line x1="176" y1="63.232" x2="187.2" y2="61.44"/>
        <line x1="187.2" y1="61.44" x2="187.2" y2="55.616"/>
        <line x1="187.2" y1="55.616" x2="180.928" y2="51.584"/>
        <line x1="180.928" y1="51.584" x2="175.104" y2="47.552"/>
        <line x1="175.104" y1="47.552" x2="173.312" y2="45.76"/>
        <line x1="173.312" y1="45.76" x2="163.904" y2="34.56"/>
        <line x1="163.904" y1="34.56" x2="163.008" y2="34.56"/>
        <line x1="163.008" y1="34.56" x2="160.32" y2="7.68"/>
        <line x1="160.32" y1="7.68" x2="150.016" y2="7.68"/>
        <line x1="150.016" y1="7.68" x2="150.016" y2="5.44"/>
        <line x1="128.96" y1="4.992" x2="126.272" y2="7.68"/>
        <line x1="126.272" y1="7.68" x2="90.88" y2="7.68"/>
        <line x1="90.88" y1="7.68" x2="88.64" y2="25.152"/>
        <line x1="88.64" y1="25.152" x2="86.4" y2="26.048"/>
        <line x1="86.4" y1="26.048" x2="85.056" y2="34.112"/>
        <line x1="85.056" y1="34.112" x2="80.576" y2="34.112"/>
        <line x1="80.576" y1="34.112" x2="79.232" y2="35.456"/>
        <line x1="79.232" y1="35.456" x2="67.584" y2="55.168"/>
        <line x1="67.584" y1="55.168" x2="74.752" y2="64.128"/>
        <line x1="74.752" y1="64.128" x2="75.2" y2="67.712"/>
        <line x1="128.96" y1="4.992" x2="150.016" y2="4.992"/>
        <line x1="150.016" y1="4.992" x2="150.016" y2="5.44"/>
        <line x1="94.96" y1="115.664" x2="93.12" y2="115.664"/>
        <line x1="93.12" y1="115.664" x2="79.6" y2="115.664"/>
        <path d="M78.8,114.864 A0.8,0.8 0 0,0 79.6,115.664 "/>
        <line x1="78.8" y1="114.864" x2="78.8" y2="96.704"/>
        <line x1="79.6" y1="95.904" x2="94.96" y2="95.904"/>
        <path d="M79.6,95.904 A0.8,0.8 0 0,0 78.8,96.704 "/>
        <line x1="113.9168" y1="91.424" x2="113.916856" y2="91.424"/>
        <line x1="94.96" y1="95.904" x2="113.80756183" y2="95.904"/>
        <path d="M114.600667,96.59919452 A0.8,0.8 0 0,0 113.80756183,95.904 "/>
        <line x1="94.96" y1="115.664" x2="116.20732863" y2="115.664"/>
        <line x1="114.600667" y1="96.59919452" x2="117.0004338" y2="114.75919452"/>
        <path d="M116.20732863,115.664 A0.8,0.8 0 0,0 117.0004338,114.75919452 "/>
        <line x1="94.96" y1="70.864" x2="110.49875978" y2="70.864"/>
        <path d="M111.29186526,71.55919682 A0.8,0.8 0 0,0 110.49875978,70.864 "/>
        <line x1="111.29186526" y1="71.55919682" x2="113.79729277" y2="90.51919682"/>
        <line x1="94.96" y1="91.424" x2="113.0041873" y2="91.424"/>
        <path d="M113.0041873,91.424 A0.8,0.8 0 0,0 113.79729277,90.51919682 "/>
        <line x1="94.96" y1="70.864" x2="79.6031189" y2="70.864"/>
        <path d="M79.6031189,70.864 A0.8,0.8 0 0,0 78.80312495,71.66711282 "/>
        <line x1="78.80312495" y1="71.66711282" x2="78.87689927" y2="90.62711282"/>
        <line x1="79.67689322" y1="91.424" x2="94.96" y2="91.424"/>
        <path d="M78.87689927,90.62711282 A0.8,0.8 0 0,0 79.67689322,91.424 "/>
        <line x1="168.32" y1="6.208" x2="164.288" y2="5.312"/>
        <line x1="164.288" y1="5.312" x2="163.392" y2="23.232"/>
        <line x1="163.392" y1="23.232" x2="167.424" y2="24.576"/>
        <line x1="199.232" y1="32.64" x2="203.264" y2="33.984"/>
        <line x1="203.264" y1="33.984" x2="210.88" y2="18.304"/>
        <line x1="210.88" y1="18.304" x2="207.744" y2="17.408"/>
        <line x1="168.32" y1="6.208" x2="207.744" y2="17.408"/>
        <line x1="199.232" y1="32.64" x2="167.424" y2="24.576"/>
        <line x1="184.32" y1="30.208" x2="180.288" y2="29.312"/>
        <line x1="180.288" y1="29.312" x2="179.392" y2="47.232"/>
        <line x1="179.392" y1="47.232" x2="183.424" y2="48.576"/>
        <line x1="215.232" y1="56.64" x2="219.264" y2="57.984"/>
        <line x1="219.264" y1="57.984" x2="226.88" y2="42.304"/>
        <line x1="226.88" y1="42.304" x2="223.744" y2="41.408"/>
        <line x1="184.32" y1="30.208" x2="223.744" y2="41.408"/>
        <line x1="215.232" y1="56.64" x2="183.424" y2="48.576"/>
        <line x1="185.28" y1="219.968" x2="188.416" y2="223.104"/>
        <line x1="188.416" y1="223.104" x2="196.032" y2="225.792"/>
        <line x1="196.032" y1="225.792" x2="206.336" y2="228.48"/>
        <line x1="206.336" y1="228.48" x2="212.608" y2="228.928"/>
        <line x1="212.608" y1="228.928" x2="215.296" y2="227.584"/>
        <line x1="215.296" y1="227.584" x2="217.536" y2="222.208"/>
        <line x1="217.536" y1="222.208" x2="219.776" y2="212.8"/>
        <line x1="219.776" y1="212.8" x2="221.12" y2="203.392"/>
        <line x1="221.12" y1="203.392" x2="222.016" y2="195.776"/>
        <line x1="222.016" y1="195.776" x2="221.568" y2="182.336"/>
        <line x1="221.568" y1="182.336" x2="220.224" y2="166.208"/>
        <line x1="220.224" y1="166.208" x2="217.536" y2="148.736"/>
        <line x1="217.536" y1="148.736" x2="213.056" y2="132.16"/>
        <line x1="213.056" y1="132.16" x2="205.888" y2="115.136"/>
        <line x1="205.888" y1="115.136" x2="202.304" y2="106.624"/>
        <line x1="202.304" y1="106.624" x2="200.96" y2="99.904"/>
        <line x1="200.96" y1="99.904" x2="200.96" y2="92.736"/>
        <line x1="200.96" y1="92.736" x2="200.512" y2="89.6"/>
        <line x1="200.512" y1="89.6" x2="196.928" y2="88.704"/>
        <line x1="196.928" y1="88.704" x2="183.488" y2="87.808"/>
        <line x1="183.488" y1="87.808" x2="173.184" y2="88.256"/>
        <line x1="173.184" y1="88.256" x2="170.496" y2="89.152"/>
        <line x1="170.496" y1="89.152" x2="169.6" y2="92.736"/>
        <line x1="169.6" y1="92.736" x2="170.944" y2="96.768"/>
        <line x1="170.944" y1="96.768" x2="173.632" y2="104.832"/>
        <line x1="173.632" y1="104.832" x2="175.424" y2="114.688"/>
        <line x1="175.424" y1="114.688" x2="178.112" y2="121.856"/>
        <line x1="181.696" y1="128.128" x2="184.384" y2="133.952"/>
        <line x1="184.384" y1="133.952" x2="185.28" y2="139.328"/>
        <line x1="185.28" y1="139.328" x2="187.072" y2="145.6"/>
        <line x1="187.072" y1="145.6" x2="187.968" y2="155.008"/>
        <line x1="187.968" y1="155.008" x2="188.416" y2="161.28"/>
        <line x1="188.416" y1="161.28" x2="188.864" y2="171.584"/>
        <line x1="188.864" y1="171.584" x2="188.864" y2="180.096"/>
        <line x1="188.864" y1="180.096" x2="187.968" y2="189.952"/>
        <line x1="187.968" y1="189.952" x2="187.52" y2="200.704"/>
        <line x1="187.52" y1="200.704" x2="186.624" y2="209.664"/>
        <line x1="186.624" y1="209.664" x2="185.28" y2="219.968"/>
        <line x1="178.112" y1="121.856" x2="181.696" y2="128.128"/>
        <line x1="225.28" y1="219.968" x2="228.416" y2="223.104"/>
        <line x1="228.416" y1="223.104" x2="236.032" y2="225.792"/>
        <line x1="236.032" y1="225.792" x2="246.336" y2="228.48"/>
        <line x1="246.336" y1="228.48" x2="252.608" y2="228.928"/>
        <line x1="252.608" y1="228.928" x2="255.296" y2="227.584"/>
        <line x1="255.296" y1="227.584" x2="257.536" y2="222.208"/>
        <line x1="257.536" y1="222.208" x2="259.776" y2="212.8"/>
        <line x1="259.776" y1="212.8" x2="261.12" y2="203.392"/>
        <line x1="261.12" y1="203.392" x2="262.016" y2="195.776"/>
        <line x1="262.016" y1="195.776" x2="261.568" y2="182.336"/>
        <line x1="261.568" y1="182.336" x2="260.224" y2="166.208"/>
        <line x1="260.224" y1="166.208" x2="257.536" y2="148.736"/>
        <line x1="257.536" y1="148.736" x2="253.056" y2="132.16"/>
        <line x1="253.056" y1="132.16" x2="245.888" y2="115.136"/>
        <line x1="245.888" y1="115.136" x2="242.304" y2="106.624"/>
        <line x1="242.304" y1="106.624" x2="240.96" y2="99.904"/>
        <line x1="240.96" y1="99.904" x2="240.96" y2="92.736"/>
        <line x1="240.96" y1="92.736" x2="240.512" y2="89.6"/>
        <line x1="240.512" y1="89.6" x2="236.928" y2="88.704"/>
        <line x1="236.928" y1="88.704" x2="223.488" y2="87.808"/>
        <line x1="223.488" y1="87.808" x2="213.184" y2="88.256"/>
        <line x1="213.184" y1="88.256" x2="210.496" y2="89.152"/>
        <line x1="210.496" y1="89.152" x2="209.6" y2="92.736"/>
        <line x1="209.6" y1="92.736" x2="210.944" y2="96.768"/>
        <line x1="210.944" y1="96.768" x2="213.632" y2="104.832"/>
        <line x1="213.632" y1="104.832" x2="215.424" y2="114.688"/>
        <line x1="215.424" y1="114.688" x2="218.112" y2="121.856"/>
        <line x1="221.696" y1="128.128" x2="224.384" y2="133.952"/>
        <line x1="224.384" y1="133.952" x2="225.28" y2="139.328"/>
        <line x1="225.28" y1="139.328" x2="227.072" y2="145.6"/>
        <line x1="227.072" y1="145.6" x2="227.968" y2="155.008"/>
        <line x1="227.968" y1="155.008" x2="228.416" y2="161.28"/>
        <line x1="228.416" y1="161.28" x2="228.864" y2="171.584"/>
        <line x1="228.864" y1="171.584" x2="228.864" y2="180.096"/>
        <line x1="228.864" y1="180.096" x2="227.968" y2="189.952"/>
        <line x1="227.968" y1="189.952" x2="227.52" y2="200.704"/>
        <line x1="227.52" y1="200.704" x2="226.624" y2="209.664"/>
        <line x1="226.624" y1="209.664" x2="225.28" y2="219.968"/>
        <line x1="218.112" y1="121.856" x2="221.696" y2="128.128"/>
        <line x1="279.232" y1="45.76" x2="255.488" y2="45.76"/>
        <line x1="255.488" y1="45.76" x2="253.696" y2="47.552"/>
        <line x1="253.696" y1="47.552" x2="232.64" y2="47.552"/>
        <line x1="232.64" y1="47.552" x2="232.64" y2="8.576"/>
        <line x1="232.64" y1="8.576" x2="235.328" y2="5.44"/>
        <line x1="235.328" y1="5.44" x2="257.28" y2="5.44"/>
        <line x1="257.28" y1="5.44" x2="257.28" y2="30.976"/>
        <line x1="257.28" y1="30.976" x2="255.488" y2="32.768"/>
        <line x1="255.488" y1="32.768" x2="255.488" y2="35.008"/>
        <line x1="255.488" y1="35.008" x2="270.72" y2="35.008"/>
        <line x1="270.72" y1="35.008" x2="279.68" y2="45.76"/>
        <line x1="295.232" y1="93.76" x2="271.488" y2="93.76"/>
        <line x1="271.488" y1="93.76" x2="269.696" y2="95.552"/>
        <line x1="269.696" y1="95.552" x2="248.64" y2="95.552"/>
        <line x1="248.64" y1="95.552" x2="248.64" y2="56.576"/>
        <line x1="248.64" y1="56.576" x2="251.328" y2="53.44"/>
        <line x1="251.328" y1="53.44" x2="273.28" y2="53.44"/>
        <line x1="273.28" y1="53.44" x2="273.28" y2="78.976"/>
        <line x1="273.28" y1="78.976" x2="271.488" y2="80.768"/>
        <line x1="271.488" y1="80.768" x2="271.488" y2="83.008"/>
        <line x1="271.488" y1="83.008" x2="286.72" y2="83.008"/>
        <line x1="286.72" y1="83.008" x2="295.68" y2="93.76"/>
        <path d="M272.96,97.216 L286.4,108.416 L298.944,108.416 L298.944,117.376 L294.464,122.752 L283.712,120.064 L280.128,119.168 L276.992,119.168 L274.752,120.064 L271.616,122.304 L270.272,124.544 L269.824,131.264 L270.272,136.64 L272.96,145.6 L286.4,180.544 L290.432,193.984 L291.328,201.152 L291.328,206.528 L289.536,217.728 L287.296,224.448 L284.16,228.928 L278.784,233.408 L272.96,236.544 L271.168,236.992 L271.168,232.96 L275.2,231.616 L280.576,227.136 L284.608,220.416 L286.848,213.248 L287.296,206.08 L286.4,197.568 L283.264,186.816 L278.784,174.72 L263.552,144.256 L260.864,136.64 L259.968,125.44 L259.52,108.416 L261.76,104.384 L270.272,97.664 L272.96,97.216 "/>
        <circle cx="271.84" cy="106.4" r="3.81458255"/>
        <circle cx="293.12" cy="115.11111111" r="3.60888889"/>
        <circle cx="295.53074126" cy="43.26288112" r="3.46133262"/>
        <path d="M318.656,48.064 L307.456,48.512 L301.632,52.544 L294.464,53.44 L287.744,50.304 L285.056,45.824 L284.16,40 L284.608,34.176 L284.16,30.144 L280.82450569,25.14075853 L280.2114474,24.50760529 L277.44,22.528 L272.512,20.288 L267.584,19.84 L267.136,19.392 L284.16,0.128 L297.6,7.744 L302.08,12.672 L302.528,18.048 L307.456,22.528 L313.728,26.56 L319.104,29.248 L325.824,29.248 L325.824,36.864 L324.928,39.104 L318.656,48.064 "/>
        <line x1="307.2" y1="182.336" x2="305.408" y2="139.328"/>
        <path d="M315.264,129.472 A9.856,9.856 0 0,0 305.408,139.328 "/>
        <line x1="315.264" y1="129.472" x2="330.048" y2="129.472"/>
        <line x1="330.048" y1="129.472" x2="342.592" y2="128.576"/>
        <line x1="342.592" y1="128.576" x2="346.176" y2="125.888"/>
        <line x1="346.176" y1="125.888" x2="351.104" y2="120.96"/>
        <line x1="351.104" y1="120.96" x2="353.792" y2="116.032"/>
        <line x1="353.792" y1="116.032" x2="355.584" y2="111.552"/>
        <line x1="355.584" y1="111.552" x2="359.168" y2="98.56"/>
        <line x1="359.168" y1="98.56" x2="360.96" y2="74.368"/>
        <line x1="360.96" y1="74.368" x2="360.512" y2="61.824"/>
        <line x1="360.512" y1="61.824" x2="359.616" y2="54.656"/>
        <line x1="359.616" y1="54.656" x2="358.72" y2="47.936"/>
        <line x1="358.72" y1="47.936" x2="358.272" y2="42.56"/>
        <line x1="358.272" y1="42.56" x2="357.824" y2="38.528"/>
        <line x1="357.824" y1="38.528" x2="358.72" y2="35.84"/>
        <line x1="358.72" y1="35.84" x2="354.688" y2="36.736"/>
        <line x1="354.688" y1="36.736" x2="353.792" y2="18.816"/>
        <line x1="353.792" y1="18.816" x2="357.824" y2="17.472"/>
        <line x1="357.824" y1="17.472" x2="357.824" y2="4.928"/>
        <line x1="357.824" y1="4.928" x2="376.64" y2="0"/>
        <line x1="376.64" y1="0" x2="389.632" y2="9.408"/>
        <line x1="389.632" y1="9.408" x2="393.664" y2="8.064"/>
        <line x1="393.664" y1="8.064" x2="401.28" y2="23.744"/>
        <line x1="401.28" y1="23.744" x2="398.144" y2="24.64"/>
        <line x1="398.144" y1="24.64" x2="404.416" y2="36.736"/>
        <line x1="404.416" y1="36.736" x2="406.208" y2="40.768"/>
        <line x1="406.208" y1="40.768" x2="408.448" y2="46.144"/>
        <line x1="408.448" y1="46.144" x2="409.792" y2="55.552"/>
        <line x1="409.792" y1="55.552" x2="410.24" y2="65.856"/>
        <line x1="410.24" y1="65.856" x2="410.688" y2="77.504"/>
        <line x1="410.688" y1="77.504" x2="409.792" y2="86.016"/>
        <line x1="409.792" y1="86.016" x2="409.344" y2="93.184"/>
        <line x1="409.344" y1="93.184" x2="407.104" y2="104.832"/>
        <line x1="407.104" y1="104.832" x2="403.968" y2="116.48"/>
        <line x1="403.968" y1="116.48" x2="401.28" y2="125.44"/>
        <line x1="401.28" y1="125.44" x2="398.144" y2="132.608"/>
        <line x1="398.144" y1="132.608" x2="392.768" y2="146.496"/>
        <line x1="392.768" y1="146.496" x2="389.184" y2="158.144"/>
        <line x1="389.184" y1="158.144" x2="387.84" y2="162.624"/>
        <line x1="387.84" y1="162.624" x2="386.944" y2="165.76"/>
        <line x1="386.944" y1="165.76" x2="386.944" y2="167.552"/>
        <line x1="386.944" y1="167.552" x2="386.944" y2="170.24"/>
        <line x1="386.944" y1="170.24" x2="388.736" y2="173.824"/>
        <line x1="388.736" y1="173.824" x2="392.32" y2="177.856"/>
        <line x1="392.32" y1="177.856" x2="396.352" y2="180.992"/>
        <line x1="396.352" y1="180.992" x2="400.832" y2="183.68"/>
        <line x1="400.832" y1="183.68" x2="408" y2="186.816"/>
        <line x1="408" y1="186.816" x2="419.2" y2="188.608"/>
        <line x1="419.2" y1="188.608" x2="419.2" y2="194.432"/>
        <line x1="419.2" y1="194.432" x2="412.928" y2="198.464"/>
        <line x1="412.928" y1="198.464" x2="407.104" y2="202.496"/>
        <line x1="407.104" y1="202.496" x2="405.312" y2="204.288"/>
        <line x1="405.312" y1="204.288" x2="395.904" y2="215.488"/>
        <line x1="395.904" y1="215.488" x2="395.008" y2="215.488"/>
        <line x1="395.008" y1="215.488" x2="392.32" y2="242.368"/>
        <line x1="392.32" y1="242.368" x2="382.016" y2="242.368"/>
        <line x1="322.88" y1="242.368" x2="320.64" y2="224.896"/>
        <line x1="320.64" y1="224.896" x2="318.4" y2="224"/>
        <line x1="318.4" y1="224" x2="317.056" y2="215.936"/>
        <line x1="317.056" y1="215.936" x2="312.576" y2="215.936"/>
        <line x1="312.576" y1="215.936" x2="311.232" y2="214.592"/>
        <line x1="311.232" y1="214.592" x2="299.584" y2="194.88"/>
        <line x1="299.584" y1="194.88" x2="306.752" y2="185.92"/>
        <line x1="306.752" y1="185.92" x2="307.2" y2="182.336"/>
        <line x1="326.96" y1="134.384" x2="325.12" y2="134.384"/>
        <line x1="325.12" y1="134.384" x2="311.6" y2="134.384"/>
        <path d="M311.6,134.384 A0.8,0.8 0 0,0 310.8,135.184 "/>
        <line x1="310.8" y1="135.184" x2="310.8" y2="153.344"/>
        <line x1="311.6" y1="154.144" x2="326.96" y2="154.144"/>
        <path d="M310.8,153.344 A0.8,0.8 0 0,0 311.6,154.144 "/>
        <line x1="311.67689322" y1="158.624" x2="326.96" y2="158.624"/>
        <path d="M311.67689322,158.624 A0.8,0.8 0 0,0 310.87689927,159.42088718 "/>
        <line x1="326.96" y1="179.184" x2="311.6031189" y2="179.184"/>
        <line x1="310.80312495" y1="178.38088718" x2="310.87689927" y2="159.42088718"/>
        <path d="M310.80312495,178.38088718 A0.8,0.8 0 0,0 311.6031189,179.184 "/>
        <path d="M326.96,179.184 A19.12057579,19.12057579 0 0,0 326.96282263,158.62220051 "/>
        <path d="M326.96,154.144 A18.9409609,18.9409609 0 0,0 326.96,134.384 "/>
        <circle cx="311.53074126" cy="99.26288112" r="3.46133262"/>
        <path d="M334.656,104.064 L323.456,104.512 L317.632,108.544 L310.464,109.44 L303.744,106.304 L301.056,101.824 L300.16,96 L300.608,90.176 L300.16,86.144 L296.82450569,81.14075853 L296.2114474,80.50760529 L293.44,78.528 L288.512,76.288 L283.584,75.84 L283.136,75.392 L300.16,56.128 L313.6,63.744 L318.08,68.672 L318.528,74.048 L323.456,78.528 L329.728,82.56 L335.104,85.248 L341.824,85.248 L341.824,92.864 L340.928,95.104 L334.656,104.064 "/>
        <line x1="335.72" y1="235.368" x2="335.72" y2="242.368"/>
        <line x1="381.72" y1="235.368" x2="381.72" y2="242.368"/>
        <line x1="335.72" y1="235.368" x2="340.72" y2="185.368"/>
        <line x1="381.72" y1="235.368" x2="376.72" y2="185.368"/>
        <line x1="376.72" y1="185.368" x2="366.72" y2="185.368"/>
        <line x1="340.72" y1="185.368" x2="350.72" y2="185.368"/>
        <line x1="350.72" y1="185.368" x2="353.72" y2="230.368"/>
        <line x1="353.72" y1="230.368" x2="363.72" y2="230.368"/>
        <line x1="363.72" y1="230.368" x2="366.72" y2="185.368"/>
        <line x1="382.016" y1="242.368" x2="381.72" y2="242.368"/>
        <line x1="335.72" y1="242.368" x2="322.88" y2="242.368"/>
        <line x1="125.824" y1="245.12" x2="144.64" y2="250.048"/>
        <line x1="144.64" y1="250.048" x2="157.632" y2="240.64"/>
    </g>
</svg>
